<svg width="12" height="12" viewBox="0 0 12 12" fill="none" xmlns="http://www.w3.org/2000/svg">
<path d="M5.36466 0.284672C5.54578 -0.0948888 6.08606 -0.0948883 6.26718 0.284673L7.64315 3.16825C7.71604 3.321 7.86126 3.42651 8.02906 3.44863L11.1967 3.86619C11.6137 3.92115 11.7806 4.43498 11.4756 4.72453L9.15835 6.92423C9.0356 7.04076 8.98013 7.21147 9.01095 7.3779L9.59268 10.5195C9.66926 10.9331 9.23216 11.2506 8.86253 11.05L6.05443 9.52594C5.90567 9.4452 5.72617 9.4452 5.57741 9.52594L2.7693 11.05C2.39967 11.2506 1.96258 10.9331 2.03915 10.5195L2.62089 7.3779C2.65171 7.21147 2.59624 7.04076 2.47348 6.92423L0.156238 4.72453C-0.148778 4.43498 0.0181787 3.92115 0.435131 3.86619L3.60277 3.44863C3.77058 3.42651 3.9158 3.321 3.98869 3.16825L5.36466 0.284672Z" fill="#F2D645"/>
</svg>
